<svg width="26" height="28" viewBox="0 0 26 28" fill="none" xmlns="http://www.w3.org/2000/svg">
<g filter="url(#filter0_d)">
<path d="M6.45781 22.1422C6.51876 22.8126 7.06729 23.3002 7.73772 23.3002H18.2614C18.9318 23.3002 19.4804 22.7923 19.5413 22.1422L20.7197 9.79004H5.27948L6.45781 22.1422Z" fill="white"/>
<path d="M20.7201 5.93002H15.5801V5.27991C15.5801 4.56885 15.0113 4 14.3002 4H11.7201C11.009 4 10.4402 4.56885 10.4402 5.27991V5.93002H5.27991C4.56885 5.93002 4 6.49887 4 7.20993C4 7.92099 4.56885 8.48984 5.27991 8.48984H20.7201C21.4312 8.48984 22 7.92099 22 7.20993C22 6.49887 21.4312 5.93002 20.7201 5.93002Z" fill="white"/>
</g>
<defs>
<filter id="filter0_d" x="0" y="0" width="26" height="27.3002" filterUnits="userSpaceOnUse" color-interpolation-filters="sRGB">
<feFlood flood-opacity="0" result="BackgroundImageFix"/>
<feColorMatrix in="SourceAlpha" type="matrix" values="0 0 0 0 0 0 0 0 0 0 0 0 0 0 0 0 0 0 127 0"/>
<feOffset/>
<feGaussianBlur stdDeviation="2"/>
<feColorMatrix type="matrix" values="0 0 0 0 0 0 0 0 0 0 0 0 0 0 0 0 0 0 0.25 0"/>
<feBlend mode="normal" in2="BackgroundImageFix" result="effect1_dropShadow"/>
<feBlend mode="normal" in="SourceGraphic" in2="effect1_dropShadow" result="shape"/>
</filter>
</defs>
</svg>
